<?xml version="1.0" standalone="no"?><!DOCTYPE svg PUBLIC "-//W3C//DTD SVG 1.1//EN" "http://www.w3.org/Graphics/SVG/1.1/DTD/svg11.dtd"><svg t="1491486770553" class="icon" style="" viewBox="0 0 1024 1024" version="1.1" xmlns="http://www.w3.org/2000/svg" p-id="2414" xmlns:xlink="http://www.w3.org/1999/xlink" width="16" height="16"><defs><style type="text/css"></style></defs><path d="M920.22272 90.535936l0 11.721728c0 20.529152-16.627712 37.18144-37.173248 37.18144l-21.613568 0c-20.530176 0-37.174272-16.651264-37.174272-37.18144L824.261632 80.627712c0-5.081088 1.037312-9.9328 2.880512-14.340096L200.594432 66.287616c1.844224 4.40832 2.880512 9.259008 2.880512 14.340096l0 21.629952c0 20.529152-16.61952 37.18144-37.173248 37.18144l-21.598208 0c-20.545536 0-37.173248-16.651264-37.173248-37.18144l0-14.08c-25.048064 19.278848-41.25696 49.46432-41.25696 83.495936l0 681.37472c0 34.031616 16.208896 64.217088 41.25696 83.479552l0-13.817856c0-20.530176 16.627712-37.182464 37.173248-37.182464l21.598208 0c20.552704 0 37.173248 16.652288 37.173248 37.182464l0 21.6064c0 5.001216-1.012736 9.734144-2.793472 14.087168l626.374656 0c-1.772544-4.353024-2.794496-9.085952-2.794496-14.087168l0-21.6064c0-20.530176 16.644096-37.182464 37.174272-37.182464l21.613568 0c20.544512 0 37.173248 16.652288 37.173248 37.182464l0 11.45856c23.307264-19.325952 38.155264-48.482304 38.155264-81.12128L958.377984 171.6736C958.377984 139.035648 943.529984 109.871104 920.22272 90.535936zM203.474944 775.90016c0 20.530176-16.61952 37.18144-37.173248 37.18144l-21.598208 0c-20.545536 0-37.173248-16.651264-37.173248-37.18144l0-21.62176c0-20.529152 16.627712-37.165056 37.173248-37.165056l21.598208 0c20.552704 0 37.173248 16.635904 37.173248 37.165056L203.474944 775.90016zM203.474944 607.496192c0 20.530176-16.61952 37.18144-37.173248 37.18144l-21.598208 0c-20.545536 0-37.173248-16.651264-37.173248-37.18144l0-21.628928c0-20.530176 16.627712-37.174272 37.173248-37.174272l21.598208 0c20.552704 0 37.173248 16.644096 37.173248 37.174272L203.474944 607.496192zM203.474944 439.08096c0 20.529152-16.61952 37.18144-37.173248 37.18144l-21.598208 0c-20.545536 0-37.173248-16.652288-37.173248-37.18144L107.53024 417.467392c0-20.553728 16.627712-37.173248 37.173248-37.173248l21.598208 0c20.552704 0 37.173248 16.61952 37.173248 37.173248L203.474944 439.08096zM203.474944 270.665728c0 20.545536-16.61952 37.173248-37.173248 37.173248l-21.598208 0c-20.545536 0-37.173248-16.627712-37.173248-37.173248l0-21.62176c0-20.529152 16.627712-37.165056 37.173248-37.165056l21.598208 0c20.552704 0 37.173248 16.635904 37.173248 37.165056L203.474944 270.665728zM774.053888 826.140672c0 41.059328-33.278976 74.346496-74.338304 74.346496L321.998848 900.487168c-41.059328 0-74.346496-33.287168-74.346496-74.346496L247.652352 622.881792c0-41.060352 33.287168-74.354688 74.346496-74.354688l377.716736 0c41.059328 0 74.338304 33.29536 74.338304 74.354688L774.053888 826.140672zM774.053888 417.253376c0 41.059328-33.278976 74.339328-74.338304 74.339328L321.998848 491.592704c-41.059328 0-74.346496-33.28-74.346496-74.339328L247.652352 213.983232c0-41.059328 33.287168-74.346496 74.346496-74.346496l377.716736 0c41.059328 0 74.338304 33.287168 74.338304 74.346496L774.053888 417.253376zM920.22272 775.90016c0 20.530176-16.627712 37.18144-37.173248 37.18144l-21.613568 0c-20.530176 0-37.174272-16.651264-37.174272-37.18144l0-21.62176c0-20.529152 16.644096-37.165056 37.174272-37.165056l21.613568 0c20.544512 0 37.173248 16.635904 37.173248 37.165056L920.22272 775.90016zM920.22272 607.496192c0 20.530176-16.627712 37.18144-37.173248 37.18144l-21.613568 0c-20.530176 0-37.174272-16.651264-37.174272-37.18144l0-21.628928c0-20.530176 16.644096-37.174272 37.174272-37.174272l21.613568 0c20.544512 0 37.173248 16.644096 37.173248 37.174272L920.22272 607.496192zM920.22272 439.08096c0 20.529152-16.627712 37.18144-37.173248 37.18144l-21.613568 0c-20.530176 0-37.174272-16.652288-37.174272-37.18144L824.261632 417.467392c0-20.553728 16.644096-37.173248 37.174272-37.173248l21.613568 0c20.544512 0 37.173248 16.61952 37.173248 37.173248L920.22272 439.08096zM920.22272 270.665728c0 20.545536-16.627712 37.173248-37.173248 37.173248l-21.613568 0c-20.530176 0-37.174272-16.627712-37.174272-37.173248l0-21.62176c0-20.529152 16.644096-37.165056 37.174272-37.165056l21.613568 0c20.544512 0 37.173248 16.635904 37.173248 37.165056L920.22272 270.665728z" p-id="2415" fill="#000000"></path></svg>