<?xml version="1.0" standalone="no"?><!DOCTYPE svg PUBLIC "-//W3C//DTD SVG 1.1//EN" "http://www.w3.org/Graphics/SVG/1.1/DTD/svg11.dtd"><svg t="1491214711440" class="icon" style="" viewBox="0 0 1024 1024" version="1.1" xmlns="http://www.w3.org/2000/svg" p-id="2473" xmlns:xlink="http://www.w3.org/1999/xlink" width="200" height="200"><defs><style type="text/css"></style></defs><path d="M293.3 435.943c0 21.688 17.579 39.271 39.271 39.271 21.688 0 39.271-17.583 39.271-39.271 0-21.688-17.584-39.271-39.271-39.271-21.692 0-39.271 17.584-39.271 39.271z m179.425 0c0 21.688 17.584 39.271 39.271 39.271 21.69 0 39.274-17.583 39.274-39.271 0-21.688-17.584-39.271-39.274-39.271-21.687 0-39.271 17.584-39.271 39.271z m179.428 0c0 21.688 17.584 39.271 39.271 39.271s39.271-17.583 39.271-39.271c0-21.688-17.584-39.271-39.271-39.271s-39.271 17.584-39.271 39.271z m178.371 319.424H511.978c-10.844 0-19.636-8.782-19.636-19.636 0-10.844 8.792-19.636 19.636-19.636h318.547c51.16 0 92.79-41.62 92.79-92.78V248.572c0-51.163-41.63-92.788-92.79-92.788H193.467c-51.155 0-92.781 41.625-92.781 92.788v374.733c0 51.16 41.625 92.79 92.781 92.79h40.671c10.849 0 19.636 8.792 19.636 19.636s-8.787 19.636-19.636 19.636h-40.671c-72.814 0-132.052-59.242-132.052-132.062V248.572c0-72.817 59.238-132.06 132.052-132.06h637.058c72.818 0 132.062 59.243 132.062 132.06v374.733c-0.001 72.82-59.244 132.062-132.063 132.062z m-562.623 152.12c-29.454 0-53.423-24.047-53.423-53.605v-118.15c0-10.844 8.792-19.636 19.636-19.636s19.636 8.792 19.636 19.636v118.15c0 10.643 11.659 18.734 22.407 11.534L501.301 719.26c9.084-5.896 21.263-3.308 27.169 5.781 5.896 9.099 3.317 21.256-5.781 27.162L297.777 898.206c-8.974 6.012-19.391 9.281-29.876 9.281z" p-id="2474" fill="#A1A1A1"></path></svg>