<?xml version="1.0" standalone="no"?><!DOCTYPE svg PUBLIC "-//W3C//DTD SVG 1.1//EN" "http://www.w3.org/Graphics/SVG/1.1/DTD/svg11.dtd"><svg t="1491486931388" class="icon" style="" viewBox="0 0 1024 1024" version="1.1" xmlns="http://www.w3.org/2000/svg" p-id="3180" xmlns:xlink="http://www.w3.org/1999/xlink" width="16" height="16"><defs><style type="text/css"></style></defs><path d="M512.00307 64.027246c-199.722764 0-361.625154 166.063153-361.625154 370.913705 0 102.421694 40.475853 195.151655 105.914238 262.271332l0 0 255.710916 262.271332L767.706823 697.212282C833.149301 630.092605 873.621061 537.362644 873.621061 434.94095 873.621061 230.089375 711.718671 64.027246 512.00307 64.027246L512.00307 64.027246zM512.00307 527.670911c-49.933249 0-90.409103-41.519626-90.409103-92.729961 0-51.214429 40.475853-92.729961 90.409103-92.729961 49.926086 0 90.409103 41.515532 90.409103 92.729961C602.412173 486.151285 561.929156 527.670911 512.00307 527.670911L512.00307 527.670911zM512.00307 527.670911" p-id="3181" fill="#000000"></path></svg>