<?xml version="1.0" standalone="no"?><!DOCTYPE svg PUBLIC "-//W3C//DTD SVG 1.1//EN" "http://www.w3.org/Graphics/SVG/1.1/DTD/svg11.dtd"><svg t="1491214890668" class="icon" style="" viewBox="0 0 1024 1024" version="1.1" xmlns="http://www.w3.org/2000/svg" p-id="999" xmlns:xlink="http://www.w3.org/1999/xlink" width="200" height="200"><defs><style type="text/css"></style></defs><path d="M321.80831 861.889879 206.541053 861.889879c-8.323573 0-15.055904-6.532787-15.055904-14.607696L191.485149 425.533696c0-8.035 6.732331-14.5903 15.055904-14.5903l115.26828 0c8.321526 0 15.055904 6.5553 15.055904 14.5903l0 421.747463C336.864214 855.356069 330.130859 861.889879 321.80831 861.889879zM220.230843 832.691883l87.433328 0L307.664172 440.132182l-87.433328 0L220.230843 832.691883zM567.43045 832.766584c-0.014326 0-0.014326 0-0.014326 0-9.639544 0-19.632129-0.202615-29.92966-0.635473-39.522132-1.670036-85.681428-8.100492-119.381971-12.777001-16.431228-2.275833-30.624485-4.25593-39.182394-4.989641-7.53051-0.64673-13.31219-6.907317-13.31219-14.408151L365.609908 455.41526c0-6.007831 3.759627-11.382235 9.435906-13.512758l7.037277-2.609431c32.988322-12.166087 101.641935-37.511335 136.809899-75.236542 37.118386-39.807634 55.655578-92.825129 55.113225-157.514453 0.797156-20.394493 12.616342-57.654095 51.68208-57.654095 7.889691 0 16.502859 1.64036 25.600051 4.851495 2.037403 0.722454 3.888564 1.89107 5.426593 3.41068 16.287965 16.156982 67.942415 110.155842 19.190061 254.385734l82.950224 0c0.014326 0 0.028653 0 0.044002 0 5.721305 0 49.291636 1.727341 67.600631 56.494689 2.975774 6.808056 14.210653 38.145785-11.860119 74.947969 7.816013 13.762445 18.310018 40.370453 5.837962 69.982888-1.181919 3.38305-7.587815 20.056801-19.576871 31.524994 6.821359 25.02086 6.490831 65.629743-29.299303 94.816482-1.496074 16.98279-8.727779 58.103326-43.668569 72.506361C724.389248 813.017798 663.337777 832.766584 567.43045 832.766584zM394.769019 787.040147c7.673773 0.959861 16.870226 2.224668 27.378557 3.710508 33.119305 4.577249 78.478376 10.874675 116.594485 12.518105 107.466594 4.601808 178.355107-18.291598 178.99672-18.501376 24.3772-10.101055 25.086351-52.439326 25.086351-52.900837 0-4.653997 2.278903-9.021467 6.108115-11.732206 41.017182-29.088502 22.210861-73.266677 21.385053-75.146491-3.087315-7.042393-0.085958-15.254425 6.863315-18.675338 6.279007-3.125177 13.31219-15.996322 16.102746-23.722284 11.276834-26.849508-7.077186-50.300616-7.858992-51.310619-4.315282-5.386684-4.226255-13.103436 0.254803-18.35095 25.003464-29.246091 14.566764-52.353368 14.113439-53.323463-0.257873-0.548492-0.584308-1.307785-0.77055-1.864464-11.859096-36.282345-36.789904-37.326117-39.594787-37.326117L655.149281 440.414615c-4.812609 0-9.312086-2.312672-12.032034-6.260587-2.719948-3.925403-3.301186-8.928347-1.566682-13.382798 51.614541-132.250046 10.481725-222.079958-3.629667-240.966097-4.529153-1.332345-8.627495-2.001587-12.231579-2.001587-20.473287 0-22.379707 26.27441-22.537296 29.249161 0.611937 71.526033-20.531616 131.196041-62.84635 176.62879-38.954197 41.795918-109.558232 68.478627-145.537677 81.766258L394.767995 787.040147zM263.960811 803.566542c-8.045233 0-14.58723-6.545066-14.58723-14.594393 0-8.03807 6.541997-14.59337 14.58723-14.59337 8.04728 0 14.597463 6.5553 14.597463 14.59337C278.558273 797.021475 272.008091 803.566542 263.960811 803.566542z" p-id="1000" fill="#A1A1A1"></path></svg>